<?xml version="1.0" encoding="utf-8"?>
<!-- Generator: Adobe Illustrator 16.0.0, SVG Export Plug-In . SVG Version: 6.00 Build 0)  -->
<!DOCTYPE svg PUBLIC "-//W3C//DTD SVG 1.1//EN" "http://www.w3.org/Graphics/SVG/1.1/DTD/svg11.dtd">
<svg version="1.1" id="图层_1" xmlns="http://www.w3.org/2000/svg" xmlns:xlink="http://www.w3.org/1999/xlink" x="0px" y="0px"
	 width="550.081px" height="500.241px" viewBox="0 0 550.081 500.241" enable-background="new 0 0 550.081 500.241"
	 xml:space="preserve">
<g>
	<rect x="0.269" y="0.18" opacity="0.9" fill="#46CBFF" width="549.931" height="500.061"/>
	<g opacity="0.5">
		<defs>
			<rect id="SVGID_1_" opacity="0.5" width="549.929" height="500.065"/>
		</defs>
		<clipPath id="SVGID_2_">
			<use xlink:href="#SVGID_1_"  overflow="visible"/>
		</clipPath>
		<polygon clip-path="url(#SVGID_2_)" fill="#FED4C2" points="-48.866,548.499 -61.319,-48.549 593.807,16.583 548.969,503.266 		
			"/>
		<polygon clip-path="url(#SVGID_2_)" fill="none" points="394.531,317.823 230.125,370.29 264.998,223.74 		"/>
		<polygon clip-path="url(#SVGID_2_)" fill="#FFEAD7" points="75.685,395.62 230.125,370.29 263.643,229.438 		"/>
		<polygon clip-path="url(#SVGID_2_)" fill="#FFDECA" points="105.576,476.129 75.685,395.62 394.531,322.345 		"/>
		<polygon clip-path="url(#SVGID_2_)" fill="#FFD3CB" points="379.586,463.407 202.967,429.763 394.531,322.345 		"/>
		<polygon clip-path="url(#SVGID_2_)" fill="#FFCDBB" points="377.094,461.657 105.576,476.129 202.967,424.298 		"/>
		<polygon clip-path="url(#SVGID_2_)" fill="#FDD9AC" points="104.574,480.078 -55.034,450.782 75.592,399.996 		"/>
		<polygon clip-path="url(#SVGID_2_)" fill="#FAE5B4" points="-66.303,357.624 -55.034,450.782 64.772,404.205 		"/>
		<polygon clip-path="url(#SVGID_2_)" fill="#FDC581" points="10.919,304.253 -66.303,357.624 64.772,404.205 		"/>
		<polygon clip-path="url(#SVGID_2_)" fill="#FBCEB5" points="241.336,229.438 10.919,304.253 64.772,404.205 264.998,223.74 		"/>
		<polyline clip-path="url(#SVGID_2_)" fill="#FCA28A" points="10.919,304.253 -23.956,192.077 -66.303,229.438 -66.303,357.624 		
			"/>
		<polygon clip-path="url(#SVGID_2_)" fill="#FCC395" points="104.574,188.458 24.771,299.756 -27.692,181.222 		"/>
		<polygon clip-path="url(#SVGID_2_)" fill="#FBDEBE" points="241.336,217.407 10.919,297.018 -16.482,211.978 		"/>
		<polygon clip-path="url(#SVGID_2_)" fill="#FEE3C0" points="279.946,207.457 10.919,322.345 -16.482,254.5 		"/>
		<polygon clip-path="url(#SVGID_2_)" fill="#FFDDBC" points="241.336,195.696 50.776,223.74 131.732,172.176 		"/>
		<polygon clip-path="url(#SVGID_2_)" fill="#FECFC5" points="411.965,211.978 394.531,317.823 202.967,181.222 		"/>
		<polygon clip-path="url(#SVGID_2_)" fill="#FFCFA3" points="-27.692,181.222 220.16,181.222 131.732,72.669 		"/>
		<polygon clip-path="url(#SVGID_2_)" fill="#E98E85" points="-66.303,223.74 -66.303,49.149 24.771,2.109 		"/>
		<polygon clip-path="url(#SVGID_2_)" fill="#FEAF9B" points="50.776,15.679 131.732,72.669 -66.303,229.438 10.919,-13.269 		"/>
		<polygon clip-path="url(#SVGID_2_)" fill="#FDD2B8" points="279.946,192.077 202.967,139.61 202.967,187.462 		"/>
		<polygon clip-path="url(#SVGID_2_)" fill="#FFDAC2" points="411.965,211.978 170.342,67.241 220.16,181.222 		"/>
		<g clip-path="url(#SVGID_2_)">
			<polygon fill="none" points="24.771,-13.269 137.959,-8.746 140.571,-2.14 202.967,155.893 			"/>
		</g>
		<polygon clip-path="url(#SVGID_2_)" fill="#FFCDC2" points="411.965,207.457 407.479,204.853 177.138,71.312 137.958,-8.746 		"/>
		<polygon clip-path="url(#SVGID_2_)" fill="none" points="139.773,-8.746 242.814,-8.746 241.696,67.241 		"/>
		<polygon clip-path="url(#SVGID_2_)" fill="#FEC8C1" points="407.479,204.853 242.814,73.989 242.814,-8.746 		"/>
		<polygon clip-path="url(#SVGID_2_)" fill="#FCCEB8" points="250.055,-2.414 429.407,8.441 411.965,207.457 		"/>
		<polygon clip-path="url(#SVGID_2_)" fill="#EA948F" points="-66.303,53.672 -66.303,-30.458 32.716,-30.458 24.771,6.034 		"/>
		<polygon clip-path="url(#SVGID_2_)" fill="#FDCBA6" points="38.442,-13.269 38.442,-30.458 411.965,-30.458 429.407,8.441 		"/>
		<polygon clip-path="url(#SVGID_2_)" fill="#FFBB74" points="-55.034,503.266 -55.034,450.782 104.574,480.078 		"/>
		<polygon clip-path="url(#SVGID_2_)" fill="#FEDCD0" points="379.285,464.314 352.328,511.04 114.596,477.75 105.24,478.343 		"/>
		<polygon clip-path="url(#SVGID_2_)" fill="#FFD396" points="-27.692,548.499 -55.034,503.266 105.24,478.343 -25.488,547.337 		
			"/>
		<polyline clip-path="url(#SVGID_2_)" fill="#FDE0AC" points="113.871,554.829 100.957,480.601 -27.692,548.499 113.871,557.544 		
			"/>
		<path clip-path="url(#SVGID_2_)" fill="none" d="M339.728,519.075"/>
		<polygon clip-path="url(#SVGID_2_)" fill="#FDDAC7" points="399.875,521.543 114.094,558.831 89.384,470.741 		"/>
		<polygon clip-path="url(#SVGID_2_)" fill="#FED6CE" points="399.875,520.805 469.259,281.637 354.673,511.04 		"/>
		<path clip-path="url(#SVGID_2_)" fill="#FAC2C2" d="M411.965,211.978v5.429l1.711-244.05l55.583,4.328l12.457,246.055
			c-7.473,2.714-69.751-6.333-69.751-6.333l-30.273,226.117l100.024-214.086l9.962-12.031"/>
		<polygon clip-path="url(#SVGID_2_)" fill="#FCD6CB" points="551.465,486.609 381.692,530.25 475.723,223.74 		"/>
		<polygon clip-path="url(#SVGID_2_)" fill="#F9C0C4" points="486.701,229.438 598.792,260.833 545.237,470.741 		"/>
		<polygon clip-path="url(#SVGID_2_)" fill="#F5BBC1" points="598.792,94.379 598.792,260.833 456.802,227.823 		"/>
		<polyline clip-path="url(#SVGID_2_)" fill="#ECB3BB" points="469.259,-22.315 598.792,99.864 481.716,223.74 		"/>
		<polygon clip-path="url(#SVGID_2_)" fill="#FFCACB" points="121.543,557.925 577.617,548.835 554.505,477.026 408.495,521.012 		
			"/>
		<polygon clip-path="url(#SVGID_2_)" fill="#FAC2C2" points="461.787,-22.315 616.231,-13.269 598.792,102.521 		"/>
		<polygon clip-path="url(#SVGID_2_)" fill="#FDC4C5" points="509.112,473.262 568.985,548.499 611.248,249.977 		"/>
		<polygon clip-path="url(#SVGID_2_)" fill="#FFD5C8" points="274.962,232.564 230.125,360.128 394.531,317.823 		"/>
	</g>
</g>
</svg>
