<?xml version="1.0" encoding="utf-8"?>
<!-- Generator: Adobe Illustrator 16.0.0, SVG Export Plug-In . SVG Version: 6.00 Build 0)  -->
<!DOCTYPE svg PUBLIC "-//W3C//DTD SVG 1.1//EN" "http://www.w3.org/Graphics/SVG/1.1/DTD/svg11.dtd">
<svg version="1.1" id="图层_1" xmlns="http://www.w3.org/2000/svg" xmlns:xlink="http://www.w3.org/1999/xlink" x="0px" y="0px"
	 width="821.486px" height="411.235px" viewBox="0 0 821.486 411.235" enable-background="new 0 0 821.486 411.235"
	 xml:space="preserve">
<rect x="36.623" y="1.581" fill="#F2F2F2" width="759.536" height="384.483"/>
<g>
	<line fill="none" stroke="#000000" stroke-miterlimit="10" x1="36.623" y1="2.668" x2="36.623" y2="398.278"/>
	<line fill="none" stroke="#000000" stroke-miterlimit="10" x1="26.158" y1="398.416" x2="794.257" y2="398.416"/>
	<line fill="none" stroke="#000000" stroke-miterlimit="10" x1="36.623" y1="387.152" x2="46.472" y2="387.152"/>
	<g>
		<line fill="none" stroke="#000000" stroke-miterlimit="10" x1="796.16" y1="398.659" x2="796.16" y2="388.814"/>
		<line fill="none" stroke="#000000" stroke-miterlimit="10" x1="773.454" y1="387.396" x2="773.454" y2="398.278"/>
		<line fill="none" stroke="#000000" stroke-miterlimit="10" x1="750.743" y1="398.659" x2="750.743" y2="388.814"/>
		<line fill="none" stroke="#000000" stroke-miterlimit="10" x1="728.03" y1="398.659" x2="728.03" y2="388.814"/>
		<line fill="none" stroke="#000000" stroke-miterlimit="10" x1="705.328" y1="398.278" x2="705.328" y2="384.127"/>
		<line fill="none" stroke="#000000" stroke-miterlimit="10" x1="682.624" y1="398.659" x2="682.624" y2="388.814"/>
		<line fill="none" stroke="#000000" stroke-miterlimit="10" x1="659.928" y1="398.659" x2="659.928" y2="388.814"/>
		<line fill="none" stroke="#000000" stroke-miterlimit="10" x1="637.225" y1="398.659" x2="637.225" y2="388.814"/>
		<line fill="none" stroke="#000000" stroke-miterlimit="10" x1="614.521" y1="398.278" x2="614.521" y2="388.814"/>
		<line fill="none" stroke="#000000" stroke-miterlimit="10" x1="591.82" y1="398.278" x2="591.82" y2="384.736"/>
		<line fill="none" stroke="#000000" stroke-miterlimit="10" x1="569.121" y1="398.659" x2="569.121" y2="388.814"/>
		<line fill="none" stroke="#000000" stroke-miterlimit="10" x1="546.417" y1="398.659" x2="546.417" y2="388.814"/>
		<line fill="none" stroke="#000000" stroke-miterlimit="10" x1="523.716" y1="398.659" x2="523.716" y2="388.814"/>
		<line fill="none" stroke="#000000" stroke-miterlimit="10" x1="501.014" y1="398.659" x2="501.014" y2="388.814"/>
		<line fill="none" stroke="#000000" stroke-miterlimit="10" x1="478.313" y1="398.278" x2="478.313" y2="385.254"/>
		<line fill="none" stroke="#000000" stroke-miterlimit="10" x1="455.609" y1="398.659" x2="455.609" y2="388.814"/>
		<line fill="none" stroke="#000000" stroke-miterlimit="10" x1="432.909" y1="398.659" x2="432.909" y2="388.814"/>
		<line fill="none" stroke="#000000" stroke-miterlimit="10" x1="408.303" y1="398.659" x2="408.303" y2="388.814"/>
		<line fill="none" stroke="#000000" stroke-miterlimit="10" x1="385.6" y1="398.659" x2="385.6" y2="388.814"/>
		<line fill="none" stroke="#000000" stroke-miterlimit="10" x1="362.901" y1="398.037" x2="362.901" y2="385.014"/>
		<line fill="none" stroke="#000000" stroke-miterlimit="10" x1="340.199" y1="398.659" x2="340.199" y2="388.814"/>
		<line fill="none" stroke="#000000" stroke-miterlimit="10" x1="317.497" y1="398.659" x2="317.497" y2="388.814"/>
		<line fill="none" stroke="#000000" stroke-miterlimit="10" x1="294.795" y1="398.659" x2="294.795" y2="388.814"/>
		<line fill="none" stroke="#000000" stroke-miterlimit="10" x1="272.059" y1="398.278" x2="272.093" y2="388.814"/>
		<line fill="none" stroke="#000000" stroke-miterlimit="10" x1="251.296" y1="398.278" x2="251.296" y2="385.701"/>
		<line fill="none" stroke="#000000" stroke-miterlimit="10" x1="226.688" y1="398.659" x2="226.688" y2="388.814"/>
		<line fill="none" stroke="#000000" stroke-miterlimit="10" x1="203.989" y1="398.659" x2="203.989" y2="388.814"/>
		<line fill="none" stroke="#000000" stroke-miterlimit="10" x1="181.287" y1="398.659" x2="181.287" y2="388.814"/>
		<line fill="none" stroke="#000000" stroke-miterlimit="10" x1="158.585" y1="398.659" x2="158.585" y2="388.814"/>
		<line fill="none" stroke="#000000" stroke-miterlimit="10" x1="137.787" y1="398.037" x2="137.787" y2="385.014"/>
		<line fill="none" stroke="#000000" stroke-miterlimit="10" x1="113.183" y1="398.659" x2="113.183" y2="388.814"/>
		<line fill="none" stroke="#000000" stroke-miterlimit="10" x1="90.482" y1="398.659" x2="90.482" y2="388.814"/>
		<line fill="none" stroke="#000000" stroke-miterlimit="10" x1="51.309" y1="398.659" x2="51.309" y2="388.814"/>
		<line fill="none" stroke="#000000" stroke-miterlimit="10" x1="67.779" y1="398.659" x2="67.779" y2="388.814"/>
	</g>
	<g>
		<line fill="none" stroke="#000000" stroke-miterlimit="10" x1="36.902" y1="375.843" x2="46.751" y2="375.843"/>
		<line fill="none" stroke="#000000" stroke-miterlimit="10" x1="36.902" y1="364.535" x2="46.751" y2="364.535"/>
		<line fill="none" stroke="#000000" stroke-miterlimit="10" x1="36.902" y1="353.228" x2="46.751" y2="353.228"/>
		<line fill="none" stroke="#000000" stroke-miterlimit="10" x1="36.902" y1="341.92" x2="46.751" y2="341.92"/>
		<line fill="none" stroke="#000000" stroke-miterlimit="10" x1="37.746" y1="330.612" x2="51.902" y2="330.612"/>
		<line fill="none" stroke="#000000" stroke-miterlimit="10" x1="36.902" y1="319.302" x2="46.751" y2="319.302"/>
		<line fill="none" stroke="#000000" stroke-miterlimit="10" x1="36.902" y1="307.996" x2="46.751" y2="307.996"/>
		<line fill="none" stroke="#000000" stroke-miterlimit="10" x1="36.902" y1="296.689" x2="46.751" y2="296.689"/>
		<line fill="none" stroke="#000000" stroke-miterlimit="10" x1="36.902" y1="285.379" x2="46.751" y2="285.379"/>
		<line fill="none" stroke="#000000" stroke-miterlimit="10" x1="37.626" y1="274.071" x2="51.178" y2="274.071"/>
		<line fill="none" stroke="#000000" stroke-miterlimit="10" x1="36.902" y1="262.763" x2="46.751" y2="262.763"/>
		<line fill="none" stroke="#000000" stroke-miterlimit="10" x1="36.902" y1="251.454" x2="46.751" y2="251.454"/>
		<line fill="none" stroke="#000000" stroke-miterlimit="10" x1="36.902" y1="240.148" x2="46.751" y2="240.148"/>
		<line fill="none" stroke="#000000" stroke-miterlimit="10" x1="36.902" y1="228.836" x2="46.751" y2="228.836"/>
		<line fill="none" stroke="#000000" stroke-miterlimit="10" x1="37.525" y1="217.53" x2="50.553" y2="217.53"/>
		<line fill="none" stroke="#000000" stroke-miterlimit="10" x1="36.902" y1="206.221" x2="46.751" y2="206.221"/>
		<line fill="none" stroke="#000000" stroke-miterlimit="10" x1="36.902" y1="194.907" x2="46.751" y2="194.907"/>
		<line fill="none" stroke="#000000" stroke-miterlimit="10" x1="36.902" y1="183.599" x2="46.751" y2="183.599"/>
		<line fill="none" stroke="#000000" stroke-miterlimit="10" x1="36.902" y1="172.291" x2="46.751" y2="172.291"/>
		<line fill="none" stroke="#000000" stroke-miterlimit="10" x1="37.525" y1="160.983" x2="50.553" y2="160.983"/>
		<line fill="none" stroke="#000000" stroke-miterlimit="10" x1="36.902" y1="149.676" x2="46.751" y2="149.676"/>
		<line fill="none" stroke="#000000" stroke-miterlimit="10" x1="36.902" y1="138.367" x2="46.751" y2="138.367"/>
		<line fill="none" stroke="#000000" stroke-miterlimit="10" x1="36.902" y1="127.058" x2="46.751" y2="127.058"/>
		<line fill="none" stroke="#000000" stroke-miterlimit="10" x1="36.902" y1="115.75" x2="46.751" y2="115.75"/>
		<line fill="none" stroke="#000000" stroke-miterlimit="10" x1="37.438" y1="104.441" x2="50.02" y2="104.441"/>
		<line fill="none" stroke="#000000" stroke-miterlimit="10" x1="36.902" y1="93.133" x2="46.751" y2="93.133"/>
		<line fill="none" stroke="#000000" stroke-miterlimit="10" x1="36.902" y1="81.827" x2="46.751" y2="81.827"/>
		<line fill="none" stroke="#000000" stroke-miterlimit="10" x1="36.902" y1="70.517" x2="46.751" y2="70.517"/>
		<line fill="none" stroke="#000000" stroke-miterlimit="10" x1="36.902" y1="59.209" x2="46.751" y2="59.209"/>
		<line fill="none" stroke="#000000" stroke-miterlimit="10" x1="37.525" y1="47.901" x2="50.553" y2="47.901"/>
		<line fill="none" stroke="#000000" stroke-miterlimit="10" x1="36.902" y1="36.593" x2="46.751" y2="36.593"/>
		<line fill="none" stroke="#000000" stroke-miterlimit="10" x1="36.902" y1="25.285" x2="46.751" y2="25.285"/>
		<line fill="none" stroke="#000000" stroke-miterlimit="10" x1="36.902" y1="13.977" x2="46.751" y2="13.977"/>
		<line fill="none" stroke="#000000" stroke-miterlimit="10" x1="36.902" y1="2.668" x2="46.751" y2="2.668"/>
	</g>
</g>
<line fill="none" stroke="#29ABE2" stroke-miterlimit="10" x1="37.746" y1="274.071" x2="796.16" y2="274.071"/>
<line fill="none" stroke="#29ABE2" stroke-miterlimit="10" x1="33.855" y1="217.53" x2="792.269" y2="217.53"/>
<line fill="none" stroke="#29ABE2" stroke-miterlimit="10" x1="37.746" y1="160.983" x2="796.16" y2="160.983"/>
<line fill="none" stroke="#29ABE2" stroke-miterlimit="10" x1="37.746" y1="104.441" x2="796.16" y2="104.441"/>
<line fill="none" stroke="#29ABE2" stroke-miterlimit="10" x1="37.746" y1="47.9" x2="796.16" y2="47.9"/>
<line fill="none" stroke="#29ABE2" stroke-miterlimit="10" x1="37.746" y1="330.612" x2="796.16" y2="330.612"/>
<line fill="none" stroke="#29ABE2" stroke-miterlimit="10" x1="37.746" y1="330.612" x2="796.16" y2="330.612"/>
<path fill="none" stroke="#29ABE2" stroke-miterlimit="10" d="M705.328,3.869"/>
<path fill="none" stroke="#29ABE2" stroke-miterlimit="10" d="M705.328,387.979"/>
<path fill="none" stroke="#29ABE2" stroke-miterlimit="10" d="M591.82,2.664"/>
<path fill="none" stroke="#29ABE2" stroke-miterlimit="10" d="M591.82,386.777"/>
<path fill="none" stroke="#29ABE2" stroke-miterlimit="10" d="M478.877,15.139"/>
<path fill="none" stroke="#29ABE2" stroke-miterlimit="10" d="M478.877,399.246"/>
<path fill="none" stroke="#29ABE2" stroke-miterlimit="10" d="M362.143,3.871"/>
<path fill="none" stroke="#29ABE2" stroke-miterlimit="10" d="M362.143,387.982"/>
<path fill="none" stroke="#29ABE2" stroke-miterlimit="10" d="M251.296,15.139"/>
<path fill="none" stroke="#29ABE2" stroke-miterlimit="10" d="M251.296,399.246"/>
<path fill="none" stroke="#29ABE2" stroke-miterlimit="10" d="M135.884,2.668"/>
<path fill="none" stroke="#29ABE2" stroke-miterlimit="10" d="M135.884,386.773"/>
<text transform="matrix(1 0 0 1 35.8188 407.7412)" font-family="'AdobeSongStd-Light-GBpc-EUC-H'" font-size="12.639">0</text>
<text transform="matrix(1 0 0 1 14.77 333.3477)" fill="#ED1C24" font-family="'AdobeSongStd-Light-GBpc-EUC-H'" font-size="18">20</text>
<text transform="matrix(1 0 0 1 14.481 277.6729)" fill="#ED1C24" font-family="'AdobeSongStd-Light-GBpc-EUC-H'" font-size="18">40</text>
<text transform="matrix(1 0 0 1 14.3374 164.0488)" fill="#ED1C24" font-family="'AdobeSongStd-Light-GBpc-EUC-H'" font-size="18">60</text>
<text transform="matrix(1 0 0 1 14.2168 50.8838)" fill="#ED1C24" font-family="'AdobeSongStd-Light-GBpc-EUC-H'" font-size="18">80</text>
<text transform="matrix(1 0 0 1 16.2744 401.668)" fill="#ED1C24" font-family="'AdobeSongStd-Light-GBpc-EUC-H'" font-size="18">-5</text>
<text transform="matrix(-4.371138e-008 -1 1 -4.371138e-008 22.4609 260.5332)" stroke="#000000" stroke-miterlimit="10" font-family="'AdobeSongStd-Light-GBpc-EUC-H'" font-size="16.0856">单位：mmhg</text>
<text transform="matrix(1 0 0 1 366.5 409.3379)" font-family="'AdobeSongStd-Light-GBpc-EUC-H'" font-size="12">ETCO2气流图</text>
</svg>
