<?xml version="1.0" encoding="utf-8"?>
<!-- Generator: Adobe Illustrator 16.0.0, SVG Export Plug-In . SVG Version: 6.00 Build 0)  -->
<!DOCTYPE svg PUBLIC "-//W3C//DTD SVG 1.1//EN" "http://www.w3.org/Graphics/SVG/1.1/DTD/svg11.dtd">
<svg version="1.1" id="图层_1" xmlns="http://www.w3.org/2000/svg" xmlns:xlink="http://www.w3.org/1999/xlink" x="0px" y="0px"
	 width="768px" height="400px" viewBox="0 0 768 400" enable-background="new 0 0 768 400" xml:space="preserve">
<line fill="none" stroke="#666666" stroke-width="3" stroke-miterlimit="10" stroke-dasharray="12" x1="126.781" y1="298.033" x2="626.779" y2="298.033"/>
<line fill="none" stroke="#666666" stroke-width="3" stroke-miterlimit="10" stroke-dasharray="12" x1="134.726" y1="238.683" x2="634.724" y2="238.683"/>
<line fill="none" stroke="#666666" stroke-width="3" stroke-miterlimit="10" stroke-dasharray="12" x1="128.723" y1="238.683" x2="628.724" y2="238.683"/>
<line fill="none" stroke="#000000" stroke-width="2" stroke-miterlimit="10" x1="126.781" y1="340.309" x2="126.781" y2="30.553"/>
<line fill="#E23B3B" stroke="#000000" stroke-width="2" stroke-miterlimit="10" x1="126.781" y1="333.805" x2="642.041" y2="333.805"/>
<path fill="none" stroke="#F7931E" stroke-width="4" stroke-miterlimit="10" d="M310.415,84.619c0,0,173.905,7.723,324.309,154.064"
	/>
<path fill="none" stroke="#00FF00" stroke-width="4" stroke-miterlimit="10" d="M155.051,34.491c0,0,285.366,5.819,479.673,139.152"
	/>
<path fill="none" stroke="#F7931E" stroke-width="4" stroke-miterlimit="10" d="M499.767,238.684c0,0,47.967-0.813,89.431,52.846"/>
<text transform="matrix(0.7459 0.666 -0.666 0.7459 347.4897 141.8291)" fill="#FF0000" font-family="'AdobeSongStd-Light-GBpc-EUC-H'" font-size="22.886">吸烟者</text>
<text transform="matrix(0.7432 0.7406 -0.7059 0.7083 529.3926 219.833)" fill="#F7931E" font-family="'AdobeSongStd-Light-GBpc-EUC-H'" font-size="21.1553">65岁戒烟</text>
<text transform="matrix(0.8685 0.4957 -0.4957 0.8685 496.3418 130.8208)" fill="#F7931E" font-family="'AdobeSongStd-Light-GBpc-EUC-H'" font-size="20.8182">45岁戒烟</text>
<text transform="matrix(0.55 0.2487 -0.412 0.9112 457.1338 70.0166)" fill="#00FF00" font-family="'AdobeSongStd-Light-GBpc-EUC-H'" font-size="23.4712">从未吸烟者，不易受到影响</text>
<line fill="none" stroke="#666666" stroke-width="3" stroke-miterlimit="10" stroke-dasharray="12" x1="589.909" y1="340.309" x2="589.909" y2="333.805"/>
<line fill="none" stroke="#666666" stroke-width="3" stroke-miterlimit="10" stroke-dasharray="12" x1="497.909" y1="340.309" x2="497.909" y2="333.805"/>
<line fill="none" stroke="#666666" stroke-width="3" stroke-miterlimit="10" stroke-dasharray="12" x1="405.909" y1="340.309" x2="405.909" y2="333.805"/>
<line fill="none" stroke="#666666" stroke-width="3" stroke-miterlimit="10" stroke-dasharray="12" x1="313.874" y1="340.309" x2="313.874" y2="333.805"/>
<line fill="none" stroke="#666666" stroke-width="3" stroke-miterlimit="10" stroke-dasharray="12" x1="220.829" y1="340.309" x2="220.829" y2="333.805"/>
<line fill="none" stroke="#666666" stroke-width="3" stroke-miterlimit="10" stroke-dasharray="12" x1="127.783" y1="340.309" x2="127.783" y2="333.805"/>
<line fill="none" stroke="#666666" stroke-width="3" stroke-miterlimit="10" stroke-dasharray="12" x1="119.101" y1="37.026" x2="125.517" y2="37.026"/>
<line fill="none" stroke="#666666" stroke-width="3" stroke-miterlimit="10" stroke-dasharray="12" x1="119.101" y1="111.063" x2="125.517" y2="111.063"/>
<line fill="none" stroke="#666666" stroke-width="3" stroke-miterlimit="10" stroke-dasharray="12" x1="119.101" y1="185.099" x2="125.517" y2="185.099"/>
<line fill="none" stroke="#666666" stroke-width="3" stroke-miterlimit="10" stroke-dasharray="12" x1="119.101" y1="258.106" x2="125.517" y2="258.106"/>
<text transform="matrix(1 0 0 1 119.1016 352.5059)" font-family="'AdobeSongStd-Light-GBpc-EUC-H'" font-size="18">25</text>
<text transform="matrix(1 0 0 1 93.8979 340.3086)" font-family="'AdobeSongStd-Light-GBpc-EUC-H'" font-size="18">0</text>
<text transform="matrix(1 0 0 1 93.8979 265.1064)" font-family="'AdobeSongStd-Light-GBpc-EUC-H'" font-size="18">25</text>
<text transform="matrix(1 0 0 1 97.1504 189.4966)" font-family="'AdobeSongStd-Light-GBpc-EUC-H'" font-size="18">50</text>
<text transform="matrix(1 0 0 1 97.1504 116.3257)" font-family="'AdobeSongStd-Light-GBpc-EUC-H'" font-size="18">75</text>
<text transform="matrix(1 0 0 1 97.1504 40.7163)" font-family="'AdobeSongStd-Light-GBpc-EUC-H'" font-size="18">100</text>
<text transform="matrix(1 0 0 1 211.7847 352.5059)" font-family="'AdobeSongStd-Light-GBpc-EUC-H'" font-size="18">35</text>
<text transform="matrix(1 0 0 1 303.6548 352.5059)" font-family="'AdobeSongStd-Light-GBpc-EUC-H'" font-size="18">45</text>
<text transform="matrix(1 0 0 1 397.9629 352.5059)" font-family="'AdobeSongStd-Light-GBpc-EUC-H'" font-size="18">55</text>
<text transform="matrix(1 0 0 1 491.459 352.5059)" font-family="'AdobeSongStd-Light-GBpc-EUC-H'" font-size="18">65</text>
<text transform="matrix(1 0 0 1 582.5176 352.5059)" font-family="'AdobeSongStd-Light-GBpc-EUC-H'" font-size="18">75</text>
<path fill="none" stroke="#ED1C24" stroke-width="4" stroke-miterlimit="10" d="M128.333,34.491l10.455,0.128
	c0,0,200-14.634,409.756,269.106"/>
<text transform="matrix(-4.371139e-008 -1 1 -4.371139e-008 51.3047 275.167)" font-family="'AdobeSongStd-Light-GBpc-EUC-H'" font-size="23.4591">25岁数值得FEV1%</text>
<text transform="matrix(1 0 0 1 294.0938 383.2949)" font-family="'AdobeSongStd-Light-GBpc-EUC-H'" font-size="25.8754">年龄（岁）</text>
</svg>
